<svg xmlns="http://www.w3.org/2000/svg" width="32" height="32" id="menu">
  <path d="M16 0C7.17 0 0 7.17 0 16s7.17 16 16 16 16-7.17 16-16S24.83 0 16 0zm0 .969C24.307.969 31.031 7.693 31.031 16S24.307 31.031 16 31.031.969 24.307.969 16 7.693.969 16 .969zM13.406 13a.5.5 0 0 0 .094 1h5a.5.5 0 1 0 0-1h-5a.5.5 0 0 0-.031 0 .5.5 0 0 0-.063 0zm0 3a.5.5 0 0 0 .094 1h5a.5.5 0 1 0 0-1h-5a.5.5 0 0 0-.031 0 .5.5 0 0 0-.063 0zm0 3a.5.5 0 0 0 .094 1h5a.5.5 0 1 0 0-1h-5a.5.5 0 0 0-.031 0 .5.5 0 0 0-.063 0z" color="#000" font-family="Sans" font-weight="400" overflow="visible" style="text-indent:0;text-align:start;line-height:normal;text-transform:none;block-progression:tb;marker:none;-inkscape-font-specification:Sans"></path>
</svg>
